# xmcd
#
# Track frame offsets: 
#        150
#        24267
#        46457
#        68582
#        88607
#        107847
#        125365
#        136902
#        156457
#        176120
#        191560
#        220870
#
# Disc length: 3477 seconds
#
# Revision: 0
# Processed by: cddbd v1.5.1PL0 Copyright (c) Steve Scherf et al.
# Submitted via: ExactAudioCopy v0.95a5
#
DISCID=a50d930c
DTITLE=Ben Bonham - San Francisco Bound
DYEAR=1900
DGENRE=Blues
TTITLE0=Judgement Day
TTITLE1=San Francisco Bound
TTITLE2=Dust My Broom
TTITLE3=Only One
TTITLE4=Traveling Man
TTITLE5=Shake It Baby
TTITLE6=Hue Hue
TTITLE7=Down In My House
TTITLE8=Death Letter Blues
TTITLE9=The Busker's Song
TTITLE10=Love In Vain
TTITLE11=The Preaching Blues
EXTD=
EXTT0=
EXTT1=
EXTT2=
EXTT3=
EXTT4=
EXTT5=
EXTT6=
EXTT7=
EXTT8=
EXTT9=
EXTT10=
EXTT11=
PLAYORDER=
